<svg width="100" height="40" viewBox="0 0 100 40" fill="none" xmlns="http://www.w3.org/2000/svg">
                <path fill-rule="evenodd" clip-rule="evenodd"
                  d="M95.4374 18.5577L99.601 13.9655H96.4998L93.09 17.7865V13.9655H90.6226V23.6124H93.09V19.5515L96.7396 23.6124H99.9269L95.4374 18.5577Z"
                  fill="#F03024" />
                <path fill-rule="evenodd" clip-rule="evenodd"
                  d="M86.2717 17.5639H82.862V13.9658H80.3945V23.6125H82.862V19.8086H86.2717V23.6125H88.739V13.9658H86.2717V17.5639Z"
                  fill="#F03024" />
                <path fill-rule="evenodd" clip-rule="evenodd"
                  d="M14.6505 19.1917C14.5914 20.9903 14.3593 21.3506 13.3483 21.3506V23.6125H13.7251C16.2469 23.6125 16.8535 22.3101 16.9465 19.4145L17.0495 16.2103H19.4138V23.6125H21.8814V13.9658H14.8219L14.6505 19.1917Z"
                  fill="#F03024" />
                <path fill-rule="evenodd" clip-rule="evenodd"
                  d="M26.2321 16.8956H28.014C30.3614 16.8956 31.6981 18.0951 31.6981 20.2196C31.6981 21.8648 30.7384 23.6124 28.0482 23.6124H23.7646V13.9656H26.2321V16.8956ZM26.2319 21.4878H27.8253C28.6991 21.4878 29.1959 21.0936 29.1959 20.2196C29.1959 19.4144 28.682 19.0374 27.8253 19.0374H26.2319V21.4878Z"
                  fill="#F03024" />
                <path fill-rule="evenodd" clip-rule="evenodd"
                  d="M39.7342 13.7428V10.1617H37.267V13.7428C34.4399 13.9827 32.5377 15.9876 32.5377 18.7804C32.5377 21.5905 34.4399 23.5953 37.267 23.8352V27.4677H39.7342V23.8352C42.5614 23.6124 44.4635 21.5905 44.4635 18.7804C44.4635 15.9702 42.5614 13.9656 39.7342 13.7428ZM37.2668 21.5049C35.8959 21.3164 35.0391 20.2883 35.0391 18.7804C35.0391 17.2726 35.8959 16.2445 37.2668 16.056V21.5049ZM41.9616 18.7804C41.9616 17.2726 41.1049 16.2445 39.734 16.056V21.5049C41.1049 21.3164 41.9616 20.2883 41.9616 18.7804Z"
                  fill="#F03024" />
                <path fill-rule="evenodd" clip-rule="evenodd"
                  d="M53.7159 17.4096V20.6482C53.7159 21.1793 53.8873 21.3849 54.3327 21.3849V23.6125H53.476C52.5337 23.6125 51.8139 23.2526 51.4885 22.6015C51.1231 23.1404 50.2872 23.8523 48.781 23.8523C46.7274 23.8523 45.3027 22.4814 45.3027 20.4768C45.3027 18.5575 46.6049 17.4096 48.7983 17.4096H51.2486C51.2486 16.2446 50.6316 15.7991 49.6721 15.7991C48.5071 15.7991 48.1301 16.4157 48.0443 16.7756H45.5426C45.6626 15.1309 47.0504 13.5541 49.6721 13.5541C52.2081 13.5541 53.7159 15.0451 53.7159 17.4096ZM49.432 21.7619C50.4601 21.7619 51.2483 21.1279 51.2483 20.0142V19.3802H49.2777C48.6095 19.3802 47.8384 19.5343 47.8384 20.4768C47.8384 21.4364 48.5408 21.7619 49.432 21.7619Z"
                  fill="#F03024" />
                <path fill-rule="evenodd" clip-rule="evenodd"
                  d="M61.5292 15.3363H64.2878C67.2521 15.3363 68.9484 16.8785 68.9484 19.4316C68.9484 22.1389 67.2521 23.6125 64.2878 23.6125H58.9419V10.1615H67.9203V12.6118H61.5292V15.3363ZM61.5288 21.1793H64.1677C65.5383 21.1793 66.3095 20.5797 66.3095 19.4316C66.3095 18.3179 65.5383 17.6839 64.1677 17.6839H61.5288V21.1793Z"
                  fill="#F03024" />
                <path fill-rule="evenodd" clip-rule="evenodd"
                  d="M78.3899 17.4096V20.6482C78.3899 21.1793 78.5613 21.3849 79.0068 21.3849V23.6125H78.1503C77.2078 23.6125 76.488 23.2526 76.1626 22.6015C75.7972 23.1404 74.9613 23.8523 73.455 23.8523C71.4015 23.8523 69.9768 22.4814 69.9768 20.4768C69.9768 18.5575 71.279 17.4096 73.4724 17.4096H75.9227C75.9227 16.2446 75.3056 15.7991 74.3462 15.7991C73.1812 15.7991 72.8042 16.4157 72.7184 16.7756H70.2167C70.3367 15.1309 71.7245 13.5541 74.3462 13.5541C76.8821 13.5541 78.3899 15.0451 78.3899 17.4096ZM74.1061 21.7619C75.1342 21.7619 75.9224 21.1279 75.9224 20.0142V19.3802H73.9518C73.2836 19.3802 72.5124 19.5343 72.5124 20.4768C72.5124 21.4364 73.2151 21.7619 74.1061 21.7619Z"
                  fill="#F03024" />
                <path fill-rule="evenodd" clip-rule="evenodd" d="M0 30.4664H13.1938V27.7246H0V30.4664Z"
                  fill="#F03024" />
                <path fill-rule="evenodd" clip-rule="evenodd"
                  d="M6.70003 10C8.18546 10 8.61909 10.8861 8.99522 12.0079L12.8856 23.6123H10.0069L9.13303 20.8538H3.92425L2.98173 23.6123H0.274414L4.357 12.0079C4.75288 10.8826 5.21416 10 6.70003 10ZM6.56321 13.0231L4.71262 18.5233H8.37957L6.63168 13.0231H6.56321Z"
                  fill="#F03024" />
              </svg>