<svg class="header__burger-menu" width="24" height="24" viewBox="0 0 24 24" fill="none" xmlns="http://www.w3.org/2000/svg">
        <path fill-rule="evenodd" clip-rule="evenodd" d="M21 18C21 17.448 20.553 17 20 17H4C3.447 17 3 17.448 3 18C3 18.552 3.447 19 4 19H20C20.553 19 21 18.552 21 18ZM14 12C14 11.448 13.553 11 13 11H4C3.447 11 3 11.448 3 12C3 12.552 3.447 13 4 13H13C13.553 13 14 12.552 14 12ZM20 7H4C3.447 7 3 6.552 3 6C3 5.448 3.447 5 4 5H20C20.553 5 21 5.448 21 6C21 6.552 20.553 7 20 7Z" fill="#162136"/>
      </svg>