<svg width="168" height="32" viewBox="0 0 168 32" fill="none" xmlns="http://www.w3.org/2000/svg">
            <path
              d="M26.917 0H25.3199C24.8166 0.000393811 24.3182 0.0999273 23.8534 0.292917C23.3885 0.485908 22.9661 0.768575 22.6105 1.12478C22.2548 1.48099 21.9728 1.90375 21.7806 2.36895C21.5883 2.83414 21.4896 3.33264 21.4899 3.836V5.435C21.4896 5.93836 21.5883 6.43686 21.7806 6.90205C21.9728 7.36725 22.2548 7.79001 22.6105 8.14622C22.9661 8.50243 23.3885 8.78509 23.8534 8.97808C24.3182 9.17107 24.8166 9.27061 25.3199 9.271H26.917C27.4203 9.27061 27.9187 9.17107 28.3835 8.97808C28.8484 8.78509 29.2708 8.50243 29.6264 8.14622C29.9821 7.79001 30.2641 7.36725 30.4563 6.90205C30.6486 6.43686 30.7473 5.93836 30.747 5.435V3.835C30.7475 2.8186 30.3443 1.8436 29.6261 1.12443C28.9078 0.405254 27.9334 0.000795376 26.917 0ZM16.1739 10.758H14.5769C14.0736 10.7584 13.5752 10.8579 13.1104 11.0509C12.6455 11.2439 12.2231 11.5266 11.8675 11.8828C11.5118 12.239 11.2298 12.6618 11.0376 13.1269C10.8453 13.5921 10.7466 14.0906 10.7469 14.594V16.193C10.7466 16.6964 10.8453 17.1949 11.0376 17.6601C11.2298 18.1252 11.5118 18.548 11.8675 18.9042C12.2231 19.2604 12.6455 19.5431 13.1104 19.7361C13.5752 19.9291 14.0736 20.0286 14.5769 20.029H16.1739C16.6773 20.0286 17.1757 19.9291 17.6405 19.7361C18.1054 19.5431 18.5278 19.2604 18.8834 18.9042C19.2391 18.548 19.5211 18.1252 19.7133 17.6601C19.9056 17.1949 20.0043 16.6964 20.0039 16.193V14.594C20.0043 14.0906 19.9056 13.5921 19.7133 13.1269C19.5211 12.6618 19.2391 12.239 18.8834 11.8828C18.5278 11.5266 18.1054 11.2439 17.6405 11.0509C17.1757 10.8579 16.6773 10.7584 16.1739 10.758Z"
              fill="#96DCFF" />
            <path
              d="M26.917 10.7581H25.32C24.8166 10.7585 24.3183 10.858 23.8534 11.051C23.3885 11.244 22.9662 11.5266 22.6105 11.8828C22.2549 12.239 21.9729 12.6618 21.7806 13.127C21.5883 13.5922 21.4896 14.0907 21.49 14.5941V16.1931C21.4896 16.6964 21.5883 17.1949 21.7806 17.6601C21.9729 18.1253 22.2549 18.5481 22.6105 18.9043C22.9662 19.2605 23.3885 19.5431 23.8534 19.7361C24.3183 19.9291 24.8166 20.0287 25.32 20.0291H26.917C27.4203 20.0287 27.9187 19.9291 28.3836 19.7361C28.8485 19.5431 29.2708 19.2605 29.6265 18.9043C29.9821 18.5481 30.2641 18.1253 30.4564 17.6601C30.6486 17.1949 30.7474 16.6964 30.747 16.1931V14.5941C30.7474 14.0907 30.6486 13.5922 30.4564 13.127C30.2641 12.6618 29.9821 12.239 29.6265 11.8828C29.2708 11.5266 28.8485 11.244 28.3836 11.051C27.9187 10.858 27.4203 10.7585 26.917 10.7581Z"
              fill="#50C3FF" />
            <path
              d="M5.43001 21.516H3.83501C3.33165 21.5164 2.8333 21.6159 2.36841 21.8089C1.90352 22.0019 1.48119 22.2846 1.12554 22.6408C0.769896 22.997 0.48789 23.4197 0.295627 23.8849C0.103365 24.3501 0.00461194 24.8486 0.00500606 25.352V26.952C0.0044754 27.9684 0.407662 28.9434 1.1259 29.6626C1.84413 30.3817 2.8186 30.7862 3.83501 30.787H5.43201C5.93536 30.7866 6.43371 30.6871 6.8986 30.4941C7.36349 30.3011 7.78582 30.0184 8.14147 29.6622C8.49712 29.306 8.77912 28.8832 8.97138 28.418C9.16365 27.9529 9.2624 27.4543 9.26201 26.951V25.352C9.2624 24.8486 9.16365 24.3501 8.97138 23.8849C8.77912 23.4197 8.49712 22.997 8.14147 22.6408C7.78582 22.2846 7.36349 22.0019 6.8986 21.8089C6.43371 21.6159 5.93536 21.5164 5.43201 21.516H5.43001Z"
              fill="#96DCFF" />
            <path
              d="M16.1739 21.516H14.5769C14.0736 21.5164 13.5752 21.6159 13.1104 21.8089C12.6455 22.0019 12.2231 22.2846 11.8675 22.6408C11.5118 22.997 11.2298 23.4197 11.0376 23.8849C10.8453 24.3501 10.7466 24.8486 10.7469 25.352V26.952C10.7464 27.9684 11.1496 28.9434 11.8678 29.6626C12.5861 30.3817 13.5605 30.7862 14.5769 30.787H16.1739C16.6773 30.7866 17.1757 30.6871 17.6405 30.4941C18.1054 30.3011 18.5278 30.0184 18.8834 29.6622C19.2391 29.306 19.5211 28.8832 19.7133 28.418C19.9056 27.9529 20.0043 27.4543 20.0039 26.951V25.352C20.0043 24.8486 19.9056 24.3501 19.7133 23.8849C19.5211 23.4197 19.2391 22.997 18.8834 22.6408C18.5278 22.2846 18.1054 22.0019 17.6405 21.8089C17.1757 21.6159 16.6773 21.5164 16.1739 21.516Z"
              fill="#50C3FF" />
            <path
              d="M26.917 21.516H25.32C24.8166 21.5164 24.3183 21.6159 23.8534 21.8089C23.3885 22.0019 22.9662 22.2846 22.6105 22.6408C22.2549 22.997 21.9729 23.4197 21.7806 23.8849C21.5883 24.3501 21.4896 24.8486 21.49 25.352V26.952C21.4895 27.9684 21.8926 28.9434 22.6109 29.6626C23.3291 30.3817 24.3036 30.7862 25.32 30.787H26.917C27.4203 30.7866 27.9187 30.6871 28.3836 30.4941C28.8485 30.3011 29.2708 30.0184 29.6265 29.6622C29.9821 29.306 30.2641 28.8832 30.4564 28.418C30.6486 27.9529 30.7474 27.4543 30.747 26.951V25.352C30.7474 24.8486 30.6486 24.3501 30.4564 23.8849C30.2641 23.4197 29.9821 22.997 29.6265 22.6408C29.2708 22.2846 28.8485 22.0019 28.3836 21.8089C27.9187 21.6159 27.4203 21.5164 26.917 21.516Z"
              fill="#009BFF" />
            <path
              d="M72.079 21.405V17.276C72.079 12.999 69.301 11.129 65.489 11.129C61.677 11.129 58.779 13.503 58.365 16.801H61.735C62.121 15.466 63.036 14.694 65.018 14.694H65.874C68.148 14.694 68.889 15.495 68.889 16.504C68.889 17.276 68.419 17.484 67.204 17.484H64.218C60.406 17.484 58.216 19.446 58.216 22.054C58.216 24.662 60.669 26.773 63.773 26.773C66.878 26.773 68.263 25.497 68.948 23.716H69.038C69.215 25.526 70.164 26.361 71.905 26.361H74.031V22.796H73.175C72.409 22.796 72.079 22.351 72.079 21.401V21.405ZM68.859 20.637C68.859 22.151 67.085 23.223 64.751 23.223H63.566C62.236 23.223 61.41 22.689 61.41 21.65C61.41 20.611 62.236 20.285 63.566 20.285H67.086C68.152 20.285 68.504 20.107 68.86 19.895L68.859 20.637ZM164.01 11.519L159.635 21.019L155.26 11.519H151.241L157.742 24.999L156.975 26.306C156.057 27.849 155.201 28.086 153.96 28.086H152.452V32.004H153.99C156.323 32.004 158.568 31.054 160.283 27.548L168 11.515H164.01V11.519ZM49.14 11.693C46.243 11.693 44.562 13.385 43.847 14.987H43.728C44.139 10.829 45.68 9.55705 48.903 9.43405L51.767 9.31505C53.364 9.25505 54.367 9.04805 55.287 8.63305V4.77405C54.371 5.13105 53.364 5.30905 51.737 5.39805L48.9 5.54605C42.695 5.87205 40.683 10.506 40.683 17.54C40.683 24.573 44.583 26.777 48.693 26.777C53.038 26.777 56.113 23.419 56.113 19.205C56.113 14.991 53.423 11.693 49.137 11.693H49.14ZM49.081 22.859H48.014C45.206 22.859 44.202 21.227 44.202 19.235C44.202 17.243 45.21 15.611 48.014 15.611H49.081C51.889 15.611 52.893 17.272 52.893 19.235C52.893 21.197 51.885 22.859 49.081 22.859ZM131.347 21.02H130.373C129.073 21.02 128.069 22.028 128.069 23.393V24.254C128.069 25.619 129.077 26.628 130.373 26.628H131.347C132.648 26.628 133.652 25.619 133.652 24.254V23.394C133.652 22.028 132.644 21.019 131.347 21.019V21.02ZM114.233 21.02V11.519H110.921V26.365H114.233L122.331 16.861V26.365H125.643V11.519H122.331L114.233 21.019V21.02ZM144.617 11.13C141.809 11.13 140.301 12.554 139.531 14.216H139.383V11.51H136.071V32H139.383V23.805H139.531C140.298 25.408 141.805 26.773 144.617 26.773C148.607 26.773 151.419 23.267 151.419 18.934C151.419 14.601 148.611 11.125 144.617 11.125V11.129V11.13ZM144.176 22.833H143.198C140.39 22.833 139.386 21.083 139.386 18.975C139.386 16.868 140.394 15.087 143.198 15.087H144.176C146.984 15.087 147.988 16.868 147.988 18.975C147.988 21.082 146.981 22.833 144.176 22.833ZM87.449 17.009H79.736V11.519H76.424V26.365H79.736V20.689H87.449V26.365H90.761V11.519H87.449V17.009ZM105.249 11.519L101.285 17.009H97.562V11.519H94.25V26.365H97.562V20.689H101.319L105.249 26.365H109.239L104.034 18.819L109.239 11.519H105.249Z"
              fill="black" />
          </svg>