<svg width="15" height="24" viewBox="0 0 15 24" fill="none" xmlns="http://www.w3.org/2000/svg">
              <path
                d="M7.61999 12.14C9.21487 12.14 10.7444 11.5065 11.8722 10.3787C12.9999 9.25097 13.6335 7.72142 13.6335 6.12654C13.6335 4.53166 12.9999 3.0021 11.8722 1.87435C10.7444 0.7466 9.21487 0.113037 7.61999 0.113037C6.02512 0.113037 4.49556 0.7466 3.36781 1.87435C2.24006 3.0021 1.60649 4.53166 1.60649 6.12654C1.60649 7.72142 2.24006 9.25097 3.36781 10.3787C4.49556 11.5065 6.02512 12.14 7.61999 12.14ZM7.61999 3.16904C8.40434 3.16983 9.15631 3.4819 9.71074 4.03671C10.2652 4.59151 10.5767 5.34369 10.577 6.12804C10.5771 6.51639 10.5007 6.90097 10.3522 7.25979C10.2036 7.61861 9.98581 7.94464 9.7112 8.21924C9.43659 8.49385 9.11056 8.71166 8.75174 8.86022C8.39293 9.00877 8.00835 9.08517 7.61999 9.08504C6.83548 9.08504 6.0831 8.77339 5.52837 8.21866C4.97364 7.66393 4.66199 6.91155 4.66199 6.12704C4.66199 5.34253 4.97364 4.59015 5.52837 4.03542C6.0831 3.48068 6.83548 3.16904 7.61999 3.16904ZM14.552 12.874C14.212 12.191 13.272 11.628 12.021 12.608C10.333 13.943 7.62099 13.943 7.62099 13.943C7.62099 13.943 4.90799 13.943 3.21699 12.608C1.96899 11.628 1.02899 12.191 0.690994 12.874C0.0989943 14.064 0.765994 14.641 2.27599 15.606C3.56499 16.434 5.33699 16.747 6.47999 16.859L5.52299 17.815C4.17799 19.161 2.87899 20.456 1.97999 21.359C1.85188 21.4869 1.75025 21.6388 1.6809 21.806C1.61156 21.9733 1.57587 22.1525 1.57587 22.3335C1.57587 22.5146 1.61156 22.6938 1.6809 22.861C1.75025 23.0282 1.85188 23.1801 1.97999 23.308L2.14399 23.469C2.27171 23.5977 2.4236 23.6997 2.59094 23.7694C2.75827 23.8391 2.93774 23.8749 3.11899 23.8749C3.30025 23.8749 3.47971 23.8391 3.64705 23.7694C3.81438 23.6997 3.96628 23.5977 4.09399 23.469L7.63599 19.927C8.98099 21.271 10.277 22.571 11.18 23.469C11.3076 23.5976 11.4594 23.6997 11.6267 23.7693C11.7939 23.839 11.9733 23.8748 12.1545 23.8748C12.3357 23.8748 12.515 23.839 12.6823 23.7693C12.8496 23.6997 13.0014 23.5976 13.129 23.469L13.292 23.308C13.5502 23.0495 13.6953 22.699 13.6953 22.3335C13.6953 21.9681 13.5502 21.6176 13.292 21.359L8.78999 16.857C9.93699 16.738 11.686 16.428 12.966 15.606C14.473 14.641 15.143 14.064 14.552 12.874Z"
                fill="#687082" />
            </svg>