<svg width="25" height="14" viewBox="0 0 25 14" fill="none" xmlns="http://www.w3.org/2000/svg">
              <path
                d="M20.288 14H20.176C18.965 13.797 18.141 12.926 17.437 12.117C17.04 11.662 16.43 10.631 15.704 10.748C14.673 10.92 15.183 12.717 14.754 13.486C14.405 14.109 12.923 13.996 11.901 13.884C8.67499 13.536 7.02699 11.78 5.58199 9.89403C4.03799 7.87803 2.83599 5.76903 1.72399 3.45303C1.36499 2.70303 0.885986 1.87303 0.885986 0.945034C1.40799 0.509034 2.26099 0.659034 3.12199 0.659034C3.85199 0.659034 4.99199 0.496034 5.52599 0.773034C5.84299 0.937034 6.16399 1.81103 6.42099 2.37003C7.00899 3.65003 7.55099 4.57003 8.26599 5.61903C8.57599 6.07403 9.05099 6.93003 9.60799 6.81603C10.149 6.70503 10.2 5.34703 10.224 4.47803C10.25 3.49203 10.222 2.26603 9.94399 1.74103C9.68099 1.24703 9.19999 1.23803 8.71399 0.944034C9.11899 0.113034 10.229 0.0310342 11.566 0.0310342C12.691 0.0310342 14.259 -0.0969659 14.698 0.658034C15.144 1.42603 14.839 2.81203 14.81 3.85103C14.778 5.01903 14.58 6.22203 15.369 6.75703C15.976 6.69103 16.304 6.08903 16.655 5.61803C17.426 4.58703 17.904 3.69603 18.501 2.36803C18.746 1.82303 19.009 0.886034 19.452 0.715034C20.127 0.454034 21.203 0.657034 22.191 0.657034C23.001 0.657034 24.448 0.429034 24.708 0.999034C24.924 1.47203 24.288 2.66703 24.093 2.99403C23.344 4.24603 22.61 5.04303 21.8 6.13103C21.478 6.56503 20.811 7.26003 20.85 7.95303C20.88 8.48203 21.399 8.88703 21.8 9.26503C22.669 10.087 23.278 10.687 23.982 11.603C24.247 11.949 24.819 12.695 24.764 13.142C24.592 14.537 21.373 13.664 20.288 14Z"
                fill="#687082" />
            </svg>